<svg id="Layer_6" data-name="Layer 6" xmlns="http://www.w3.org/2000/svg" viewBox="0 0 92.55 168.3"><defs><style>.cls-1{fill:#84abb3;}.cls-2{fill:#f58220;}.cls-3{fill:#fdbd65;}.cls-4{fill:#184161;}.cls-5{fill:#fff;}</style></defs><title>logo_v2_multi</title><path class="cls-1" d="M158.85,221.3a42.89,42.89,0,0,1-7.4-5.43c-1.14-1-2.23-2.13-3.28-3.27a46.5,46.5,0,0,1-2.93-3.62c-0.44-.64-0.91-1.27-1.31-1.95s-0.8-1.35-1.18-2-0.72-1.4-1-2.13-0.61-1.46-.89-2.21-0.49-1.52-.68-2.3-0.34-1.57-.49-2.35-0.22-1.59-.26-2.4a21.86,21.86,0,0,1,0-2.42v0.12c0-.89,0-1.78,0-2.67s0.1-1.78.23-2.66,0.28-1.76.42-2.64,0.4-1.74.68-2.58a34.76,34.76,0,0,1,4.54-9.53,36.78,36.78,0,0,1,3.2-4.15c0.58-.65,1.17-1.29,1.78-1.9s1.23-1.22,1.88-1.8a40.59,40.59,0,0,1,8.45-5.9,49.36,49.36,0,0,0-3.89,3.3c-1.23,1.16-2.43,2.35-3.55,3.61s-2.2,2.54-3.18,3.89c-0.5.67-1,1.36-1.43,2s-0.9,1.4-1.31,2.12-0.8,1.45-1.18,2.18-0.71,1.49-1,2.24-0.61,1.53-.89,2.3-0.51,1.56-.7,2.35-0.35,1.59-.54,2.39-0.29,1.6-.35,2.42-0.15,1.62-.18,2.43,0,1.63,0,2.44v0.11h0c0,0.71,0,1.42,0,2.13s0.11,1.42.19,2.12,0.22,1.41.4,2.1,0.36,1.39.58,2.08,0.44,1.38.72,2,0.56,1.34.86,2,0.64,1.31,1,1.95,0.72,1.28,1.09,1.91,0.78,1.25,1.21,1.86,0.86,1.21,1.29,1.81c0.88,1.2,1.81,2.37,2.8,3.5s2,2.25,3,3.33S157.71,220.29,158.85,221.3Z" transform="translate(-81.6 -62.5)"/><path class="cls-1" d="M119.71,187.37a46.38,46.38,0,0,0-8-3.18c-0.81-.22-1.64-0.4-2.44-0.59s-1.64-.3-2.45-0.44a35,35,0,0,0-4.85-.29,24.25,24.25,0,0,0-8.77,1.8,21.1,21.1,0,0,0-6.25,4,20.6,20.6,0,0,0-3.49,4.26A17.81,17.81,0,0,0,82,196a8,8,0,0,0-.35,1.15s0.29-.3.85-0.82a24.92,24.92,0,0,1,2.55-2A24.35,24.35,0,0,1,89.2,192a20.42,20.42,0,0,1,5.65-1.56,21.7,21.7,0,0,1,6.67.17,28.5,28.5,0,0,1,3.58.85c0.61,0.2,1.22.36,1.83,0.6s1.23,0.47,1.85.73a56.53,56.53,0,0,1,7.5,3.86c1.25,0.75,2.51,1.55,3.76,2.38,0.63,0.4,1.23.87,1.85,1.3l0.94,0.64,0.76,0.51,0.51,0.32a41.16,41.16,0,0,0,9.74,4.55,33,33,0,0,0,3.51.85Z" transform="translate(-81.6 -62.5)"/><path class="cls-2" d="M135,204.08l-0.72-.16c-0.91-.21-1.83-0.3-2.75-0.46a23,23,0,0,0-2.52-.36c-0.86-.1-1.72-0.11-2.58-0.12s-1.72,0-2.57.13-1.7.2-2.54,0.34-1.67.34-2.48,0.58-1.62.48-2.43,0.75-1.59.57-2.36,0.91-1.53.7-2.28,1.06c-1.49.77-2.94,1.6-4.33,2.5s-2.73,1.89-4,2.92a46.72,46.72,0,0,0-7,6.92c1.25-1.05,2.56-2,3.87-3s2.65-1.86,4-2.71,2.75-1.68,4.17-2.42c0.71-.37,1.41-0.75,2.14-1.09s1.45-.67,2.17-1,1.47-.59,2.22-0.85,1.49-.52,2.24-0.75,1.51-.43,2.27-0.59,1.53-.3,2.3-0.43,1.54-.22,2.31-0.27,1.54-.07,2.31-0.08,1.54,0,2.3.14,1.52,0.22,2.27.32h0l0.11,0c0.87,0.14,1.75.21,2.6,0.4s1.72,0.35,2.56.59,1.68,0.52,2.52.78l0.33,0.13Z" transform="translate(-81.6 -62.5)"/><path class="cls-2" d="M170.77,186.75c-0.49.59-1.27,1.4-2.24,2.41a46,46,0,0,1-8.67,7.07,27.1,27.1,0,0,1-6.29,2.85,23,23,0,0,1-3.5.74,22.53,22.53,0,0,1-3.64.12,23.29,23.29,0,0,1-3.28-.45l5.54,8.86a24.72,24.72,0,0,0,7.72-2.55,27.12,27.12,0,0,0,7-5.25,31.89,31.89,0,0,0,4.33-5.6,33.25,33.25,0,0,0,2.42-4.74,30.5,30.5,0,0,0,1.12-3.2c0.21-.75.29-1.16,0.29-1.16Z" transform="translate(-81.6 -62.5)"/><path class="cls-3" d="M143.41,209.94s-22.41-24.81-57.74-10c-6.67,3.44-4.67,12.31,4.67,10S105.14,191.54,143.41,209.94Z" transform="translate(-81.6 -62.5)"/><path class="cls-3" d="M142.47,202.12S140,172.39,166.9,162.29c10.76-3.5,7.71,6.12,2.53,8.58s-23.31,9.27-25.86,34.94h0l-1.11-3.69" transform="translate(-81.6 -62.5)"/><path class="cls-4" d="M154.73,65.67C144.34,62.5,116,55.56,92.33,100c-4.67,10.67-22.11,51.56,33.89,98.9l35.29,28.95,2.46,2s2.05,1.5,2.7.71,0.24-1.25-1-2.95c-9.14-12.87-24.26-33.22-25.73-44-2.2-16.07.74-28.75,20-55.67C176.28,104.82,172.29,70.39,154.73,65.67Z" transform="translate(-81.6 -62.5)"/><path class="cls-5" d="M159.5,62.5a17.75,17.75,0,0,0-1.78,1A49.79,49.79,0,0,0,153.1,67a119.67,119.67,0,0,0-14.44,14.64c-2.73,3.26-5.54,6.91-8.31,10.9a130.92,130.92,0,0,0-7.9,13A105.73,105.73,0,0,0,116,120.43a81.3,81.3,0,0,0-3.85,16.17,68.86,68.86,0,0,0-.24,16.54,77,77,0,0,0,1.36,8,69,69,0,0,0,2.26,7.61,76.51,76.51,0,0,0,6.55,13.59A97.19,97.19,0,0,0,130,193.43c2.69,3.26,5.41,6.09,7.78,8.64l6.19,6.57,5.39,5.73L147.8,213c-1-.88-2.52-2.15-4.39-3.81s-4.16-3.67-6.72-6-5.5-5-8.43-8.22a84.89,84.89,0,0,1-8.72-11,71.39,71.39,0,0,1-7.32-14,72.61,72.61,0,0,1-2.58-8,65.08,65.08,0,0,1-1.57-8.45,72.07,72.07,0,0,1,.12-17.5,85.22,85.22,0,0,1,4.17-16.93,99.28,99.28,0,0,1,7-15.27,113.19,113.19,0,0,1,8.58-13.09,120.71,120.71,0,0,1,9-10.68,112.82,112.82,0,0,1,8.5-8.17,83.34,83.34,0,0,1,7.16-5.59,41.94,41.94,0,0,1,5-3A17.75,17.75,0,0,1,159.5,62.5Z" transform="translate(-81.6 -62.5)"/><circle class="cls-5" cx="52.35" cy="24.79" r="15.95"/><path class="cls-5" d="M110,136.15c-0.15-.66-0.31-1.33-0.51-2-0.31-1.08-.61-2.16-1-3.23s-0.72-2.14-1.1-3.2-0.8-2.11-1.26-3.15-0.93-2.07-1.44-3.09-1-2-1.6-3-1.18-2-1.8-2.92-1.3-1.89-2-2.81-1.45-1.8-2.22-2.66-1.58-1.69-2.43-2.48A25.72,25.72,0,0,0,89,103.52a20.88,20.88,0,0,1,2.52,2.3c0.79,0.81,1.52,1.66,2.22,2.53s1.37,1.76,2,2.67,1.21,1.85,1.79,2.78,1.11,1.9,1.62,2.86,1,2,1.44,2.94,0.9,2,1.31,3,0.79,2,1.15,3c0.7,2.05,1.4,4.1,1.94,6.2,0.3,1,.54,2.09.79,3.15s0.47,2.11.71,3.17,0.41,2.13.61,3.19l0.5,3.21,0.42,3.22,0.36,3.23,0.51,4.57Z" transform="translate(-81.6 -62.5)"/><path class="cls-5" d="M157.25,126.5c-1.12-.26-2.25-0.51-3.38-0.75s-2.28-.43-3.43-0.57-2.3-.31-3.46-0.37l-1.74-.13-1.75,0c-1.17,0-2.34,0-3.51.05s-2.34.14-3.51,0.29l-1.75.24-1.74.32c-1.16.24-2.32,0.49-3.46,0.82s-2.28.68-3.41,1.07-2.22.88-3.31,1.39-2.15,1.07-3.2,1.66-2.06,1.25-3.06,1.94a33.63,33.63,0,0,0-2.88,2.23c-0.61.53-1.2,1.08-1.78,1.65-0.11-.95-0.24-1.89-0.36-2.84v9.72l0.48-.72a21.51,21.51,0,0,1,2-2.41,31.15,31.15,0,0,1,2.33-2.28c0.81-.73,1.67-1.41,2.53-2.08s1.78-1.28,2.71-1.87,1.89-1.13,2.86-1.64,2-1,3-1.41,2-.85,3.09-1.2,2.11-.69,3.18-1l1.62-.41,1.64-.34c1.09-.25,2.2-0.4,3.3-0.58s2.22-.3,3.35-0.36,2.25-.16,3.38-0.19,2.26,0,3.4,0,2.27,0.09,3.41.11l3.42,0.25,3.42,0.36Z" transform="translate(-81.6 -62.5)"/></svg>