<svg id="Layer_14" data-name="Layer 14" xmlns="http://www.w3.org/2000/svg" viewBox="0 0 92.55 167.53"><defs><style>.cls-1{fill:#fff;}</style></defs><title>logo_v2_transparent_White</title><path class="cls-1" d="M153.1,67a105.39,105.39,0,0,0-8.71,8.25,15.94,15.94,0,0,1-19.17,25.39c-0.94,1.61-1.87,3.25-2.77,4.94A105.73,105.73,0,0,0,116,120.43,81.52,81.52,0,0,0,112.23,136c0.47-.45.94-0.9,1.43-1.33a33.63,33.63,0,0,1,2.88-2.23c1-.69,2-1.34,3.06-1.94s2.11-1.15,3.2-1.66,2.19-1,3.31-1.39,2.26-.77,3.41-1.07,2.3-.58,3.46-0.82l1.74-.32,1.75-.24c1.17-.15,2.34-0.21,3.51-0.29s2.34-.1,3.51-0.05l1.75,0,1.74,0.13c1.16,0.06,2.31.24,3.46,0.37s2.29,0.37,3.43.57,2.26,0.49,3.38.75l3.15,0.89c15.8-23.16,11.74-57-5.66-61.73C154.22,66.07,153.68,66.5,153.1,67Z" transform="translate(-81.6 -63.27)"/><path class="cls-1" d="M169.44,170.86c5.18-2.46,8.23-12.08-2.53-8.58-17,6.41-22.29,20.72-23.85,30.33q-0.37-.78-0.71-1.54c0-.78-0.05-1.55,0-2.33s0.07-1.63.18-2.43,0.23-1.61.35-2.42,0.31-1.6.54-2.39,0.44-1.57.7-2.35,0.55-1.55.89-2.3,0.67-1.5,1-2.24,0.75-1.47,1.18-2.18,0.86-1.42,1.31-2.12,0.94-1.38,1.43-2c1-1.35,2.06-2.64,3.18-3.89s2.32-2.45,3.55-3.61a49.36,49.36,0,0,1,3.89-3.3,40.59,40.59,0,0,0-8.45,5.9c-0.65.57-1.27,1.18-1.88,1.8s-1.2,1.25-1.78,1.9a36.77,36.77,0,0,0-3.2,4.15,34.76,34.76,0,0,0-4.54,9.53c-0.28.84-.47,1.72-0.68,2.58l-0.05.29c-2.19-16,.76-28.73,20-55.63,0.13-.19.25-0.38,0.38-0.57l-3.23-.34-3.42-.25c-1.14,0-2.27-.1-3.41-0.11s-2.27,0-3.4,0-2.25.1-3.38,0.19-2.24.23-3.35,0.36-2.21.34-3.3,0.58l-1.64.34-1.62.41c-1.07.29-2.14,0.6-3.18,1s-2.07.78-3.09,1.2-2,.9-3,1.41-1.93,1.05-2.86,1.64-1.83,1.21-2.71,1.87-1.72,1.35-2.53,2.08a31.12,31.12,0,0,0-2.33,2.28,21.5,21.5,0,0,0-2,2.41l-0.42.63a66.16,66.16,0,0,0,.32,10,77,77,0,0,0,1.36,8,69,69,0,0,0,2.26,7.61,76.51,76.51,0,0,0,6.55,13.59A97.19,97.19,0,0,0,130,193.43c2.69,3.26,5.41,6.09,7.78,8.64l6.19,6.57,5.39,5.73L147.8,213c-1-.88-2.52-2.15-4.39-3.81s-4.16-3.67-6.72-6-5.5-5-8.43-8.22a84.89,84.89,0,0,1-8.72-11,71.39,71.39,0,0,1-7.32-14,72.61,72.61,0,0,1-2.58-8,65.08,65.08,0,0,1-1.57-8.45,69.83,69.83,0,0,1-.47-9v0l-0.5-3.21c-0.2-1.06-.39-2.13-0.61-3.19S106,136,105.77,135s-0.49-2.11-.79-3.15c-0.54-2.1-1.24-4.15-1.94-6.2-0.36-1-.74-2-1.15-3s-0.84-2-1.31-3-0.93-2-1.44-2.94-1-1.92-1.62-2.86-1.16-1.87-1.79-2.78-1.3-1.8-2-2.67-1.43-1.72-2.22-2.53c-0.36-.38-0.74-0.75-1.12-1.11-5,13.39-11.94,43.57,20.25,79.22l-1.38-.33c-0.81-.18-1.64-0.3-2.45-0.44a35,35,0,0,0-4.85-.29,24.25,24.25,0,0,0-8.77,1.8,21.1,21.1,0,0,0-6.25,4,20.6,20.6,0,0,0-3.49,4.26A17.81,17.81,0,0,0,82,196a8,8,0,0,0-.35,1.15s0.29-.3.85-0.82a24.92,24.92,0,0,1,2.55-2A24.35,24.35,0,0,1,89.2,192a20.42,20.42,0,0,1,5.65-1.56,21.7,21.7,0,0,1,6.67.17,28.5,28.5,0,0,1,3.58.85c0.61,0.2,1.22.36,1.83,0.6s1.23,0.47,1.85.73a49.91,49.91,0,0,1,5.88,2.92c-8.22-1.14-18-.38-29,4.22-6.67,3.44-4.67,12.31,4.67,10C98,208.08,103,197,125.49,203c-0.53,0-1.07,0-1.59.1-0.86.07-1.7,0.2-2.54,0.34s-1.67.34-2.48,0.58-1.62.48-2.43,0.75-1.59.57-2.36,0.91-1.53.7-2.28,1.06c-1.49.77-2.94,1.6-4.33,2.5s-2.73,1.89-4,2.92a46.72,46.72,0,0,0-7,6.92c1.25-1.05,2.56-2,3.87-3s2.65-1.86,4-2.71,2.75-1.68,4.17-2.42c0.71-.37,1.41-0.75,2.14-1.09s1.45-.67,2.17-1,1.47-.59,2.22-0.85,1.49-.52,2.24-0.75,1.51-.43,2.27-0.59,1.53-.3,2.3-0.43,1.54-.22,2.31-0.27,1.54-.07,2.31-0.08,1.54,0,2.3.14,1.52,0.22,2.27.32h0l0.11,0c0.87,0.14,1.75.21,2.6,0.4s1.72,0.35,2.56.59l0.44,0.13,24.76,20.31,2.46,2s2.05,1.5,2.7.71,0.24-1.25-1-2.95c-4-5.69-9.25-12.85-13.94-20a24,24,0,0,0,4.6-1.83,27.12,27.12,0,0,0,7-5.25,31.89,31.89,0,0,0,4.33-5.6,33.25,33.25,0,0,0,2.42-4.74,30.5,30.5,0,0,0,1.12-3.2c0.21-.75.29-1.16,0.29-1.16l-0.77.9c-0.49.59-1.27,1.4-2.24,2.41a46,46,0,0,1-8.67,7.07,27.1,27.1,0,0,1-6.29,2.85,23,23,0,0,1-3.5.74,21.9,21.9,0,0,1-3.08.12q-0.91-1.55-1.74-3C150.54,178.47,164.92,173,169.44,170.86Z" transform="translate(-81.6 -63.27)"/><path class="cls-1" d="M94.65,107.61c0.85,0.79,1.65,1.63,2.43,2.48s1.52,1.74,2.22,2.66,1.35,1.86,2,2.81,1.24,1.92,1.8,2.92,1.1,2,1.6,3,1,2,1.44,3.09,0.87,2.09,1.26,3.15,0.77,2.12,1.1,3.2c0.13,0.38.24,0.76,0.35,1.13a86.57,86.57,0,0,1,3.51-12.91,99.28,99.28,0,0,1,7-15.27c1-1.87,2.13-3.65,3.24-5.39A15.95,15.95,0,0,1,143,74.15c0.84-.77,1.67-1.51,2.47-2.2a83.34,83.34,0,0,1,7.16-5.59c0.48-.33.93-0.63,1.36-0.91C143,62.21,115.46,56.58,92.33,100c-0.49,1.13-1.13,2.6-1.81,4.38A29.32,29.32,0,0,1,94.65,107.61Z" transform="translate(-81.6 -63.27)"/></svg>