<svg id="Layer_7_copy" data-name="Layer 7 copy" xmlns="http://www.w3.org/2000/svg" viewBox="0 0 92.55 167.53"><defs><style>.cls-1{fill:#f58220;}</style></defs><title>logo_v2_transparent_orange</title><path class="cls-1" d="M158.85,221.3a42.89,42.89,0,0,1-7.4-5.43c-1.14-1-2.23-2.13-3.28-3.27a46.5,46.5,0,0,1-2.93-3.62c-0.44-.64-0.91-1.27-1.31-1.95s-0.8-1.35-1.18-2-0.72-1.4-1-2.13-0.61-1.46-.89-2.21-0.49-1.52-.68-2.3-0.34-1.57-.49-2.35-0.22-1.59-.26-2.4a21.86,21.86,0,0,1,0-2.42v0.12c0-.89,0-1.78,0-2.67s0.1-1.78.23-2.66,0.28-1.76.42-2.64,0.4-1.74.68-2.58a34.76,34.76,0,0,1,4.54-9.53,36.78,36.78,0,0,1,3.2-4.15c0.58-.65,1.17-1.29,1.78-1.9s1.23-1.22,1.88-1.8a40.59,40.59,0,0,1,8.45-5.9,49.36,49.36,0,0,0-3.89,3.3c-1.23,1.16-2.43,2.35-3.55,3.61s-2.2,2.54-3.18,3.89c-0.5.67-1,1.36-1.43,2s-0.9,1.4-1.31,2.12-0.8,1.45-1.18,2.18-0.71,1.49-1,2.24-0.61,1.53-.89,2.3-0.51,1.56-.7,2.35-0.35,1.59-.54,2.39-0.29,1.6-.35,2.42-0.15,1.62-.18,2.43,0,1.63,0,2.44v0.11h0c0,0.71,0,1.42,0,2.13s0.11,1.42.19,2.12,0.22,1.41.4,2.1,0.36,1.39.58,2.08,0.44,1.38.72,2,0.56,1.34.86,2,0.64,1.31,1,1.95,0.72,1.28,1.09,1.91,0.78,1.25,1.21,1.86,0.86,1.21,1.29,1.81c0.88,1.2,1.81,2.37,2.8,3.5s2,2.25,3,3.33S157.71,220.29,158.85,221.3Z" transform="translate(-81.6 -63.27)"/><path class="cls-1" d="M119.71,187.37a46.38,46.38,0,0,0-8-3.18c-0.81-.22-1.64-0.4-2.44-0.59s-1.64-.3-2.45-0.44a35,35,0,0,0-4.85-.29,24.25,24.25,0,0,0-8.77,1.8,21.1,21.1,0,0,0-6.25,4,20.6,20.6,0,0,0-3.49,4.26A17.81,17.81,0,0,0,82,196a8,8,0,0,0-.35,1.15s0.29-.3.85-0.82a24.92,24.92,0,0,1,2.55-2A24.35,24.35,0,0,1,89.2,192a20.42,20.42,0,0,1,5.65-1.56,21.7,21.7,0,0,1,6.67.17,28.5,28.5,0,0,1,3.58.85c0.61,0.2,1.22.36,1.83,0.6s1.23,0.47,1.85.73a56.53,56.53,0,0,1,7.5,3.86c1.25,0.75,2.51,1.55,3.76,2.38,0.63,0.4,1.23.87,1.85,1.3l0.94,0.64,0.76,0.51,0.51,0.32a41.16,41.16,0,0,0,9.74,4.55,33,33,0,0,0,3.51.85Z" transform="translate(-81.6 -63.27)"/><path class="cls-1" d="M135,204.08l-0.72-.16c-0.91-.21-1.83-0.3-2.75-0.46a23,23,0,0,0-2.52-.36c-0.86-.1-1.72-0.11-2.58-0.12s-1.72,0-2.57.13-1.7.2-2.54,0.34-1.67.34-2.48,0.58-1.62.48-2.43,0.75-1.59.57-2.36,0.91-1.53.7-2.28,1.06c-1.49.77-2.94,1.6-4.33,2.5s-2.73,1.89-4,2.92a46.72,46.72,0,0,0-7,6.92c1.25-1.05,2.56-2,3.87-3s2.65-1.86,4-2.71,2.75-1.68,4.17-2.42c0.71-.37,1.41-0.75,2.14-1.09s1.45-.67,2.17-1,1.47-.59,2.22-0.85,1.49-.52,2.24-0.75,1.51-.43,2.27-0.59,1.53-.3,2.3-0.43,1.54-.22,2.31-0.27,1.54-.07,2.31-0.08,1.54,0,2.3.14,1.52,0.22,2.27.32h0l0.11,0c0.87,0.14,1.75.21,2.6,0.4s1.72,0.35,2.56.59,1.68,0.52,2.52.78l0.33,0.13Z" transform="translate(-81.6 -63.27)"/><path class="cls-1" d="M170.77,186.75c-0.49.59-1.27,1.4-2.24,2.41a46,46,0,0,1-8.67,7.07,27.1,27.1,0,0,1-6.29,2.85,23,23,0,0,1-3.5.74,22.53,22.53,0,0,1-3.64.12,23.29,23.29,0,0,1-3.28-.45l5.54,8.86a24.72,24.72,0,0,0,7.72-2.55,27.12,27.12,0,0,0,7-5.25,31.89,31.89,0,0,0,4.33-5.6,33.25,33.25,0,0,0,2.42-4.74,30.5,30.5,0,0,0,1.12-3.2c0.21-.75.29-1.16,0.29-1.16Z" transform="translate(-81.6 -63.27)"/><path class="cls-1" d="M143.41,209.94s-22.41-24.81-57.74-10c-6.67,3.44-4.67,12.31,4.67,10S105.14,191.54,143.41,209.94Z" transform="translate(-81.6 -63.27)"/><path class="cls-1" d="M142.47,202.12S140,172.39,166.9,162.29c10.76-3.5,7.71,6.12,2.53,8.58s-23.31,9.27-25.86,34.94h0l-1.11-3.69" transform="translate(-81.6 -63.27)"/><path class="cls-1" d="M153.1,67a105.39,105.39,0,0,0-8.71,8.25,15.94,15.94,0,0,1-19.17,25.39c-0.94,1.61-1.87,3.25-2.77,4.94A105.73,105.73,0,0,0,116,120.43,81.52,81.52,0,0,0,112.23,136c0.47-.45.94-0.9,1.43-1.33a33.63,33.63,0,0,1,2.88-2.23c1-.69,2-1.34,3.06-1.94s2.11-1.15,3.2-1.66,2.19-1,3.31-1.39,2.26-.77,3.41-1.07,2.3-.58,3.46-0.82l1.74-.32,1.75-.24c1.17-.15,2.34-0.21,3.51-0.29s2.34-.1,3.51-0.05l1.75,0,1.74,0.13c1.16,0.06,2.31.24,3.46,0.37s2.29,0.37,3.43.57,2.26,0.49,3.38.75l3.15,0.89c15.8-23.16,11.74-57-5.66-61.73C154.22,66.07,153.68,66.5,153.1,67Z" transform="translate(-81.6 -63.27)"/><path class="cls-1" d="M140,183.67c-2.2-16.07.74-28.75,20-55.67,0.13-.19.25-0.38,0.38-0.57l-3.23-.34-3.42-.25c-1.14,0-2.27-.1-3.41-0.11s-2.27,0-3.4,0-2.25.1-3.38,0.19-2.24.23-3.35,0.36-2.21.34-3.3,0.58l-1.64.34-1.62.41c-1.07.29-2.14,0.6-3.18,1s-2.07.78-3.09,1.2-2,.9-3,1.41-1.93,1.05-2.86,1.64-1.83,1.21-2.71,1.87-1.72,1.35-2.53,2.08a31.12,31.12,0,0,0-2.33,2.28,21.5,21.5,0,0,0-2,2.41l-0.42.63a66.16,66.16,0,0,0,.32,10,77,77,0,0,0,1.36,8,69,69,0,0,0,2.26,7.61,76.51,76.51,0,0,0,6.55,13.59A97.19,97.19,0,0,0,130,193.43c2.69,3.26,5.41,6.09,7.78,8.64l6.19,6.57,5.39,5.73L147.8,213c-1-.88-2.52-2.15-4.39-3.81s-4.16-3.67-6.72-6-5.5-5-8.43-8.22a84.89,84.89,0,0,1-8.72-11,71.39,71.39,0,0,1-7.32-14,72.61,72.61,0,0,1-2.58-8,65.08,65.08,0,0,1-1.57-8.45,69.83,69.83,0,0,1-.47-9v0l-0.5-3.21c-0.2-1.06-.39-2.13-0.61-3.19S106,136,105.77,135s-0.49-2.11-.79-3.15c-0.54-2.1-1.24-4.15-1.94-6.2-0.36-1-.74-2-1.15-3s-0.84-2-1.31-3-0.93-2-1.44-2.94-1-1.92-1.62-2.86-1.16-1.87-1.79-2.78-1.3-1.8-2-2.67-1.43-1.72-2.22-2.53c-0.36-.38-0.74-0.75-1.12-1.11-5.72,15.23-13.89,52.17,35.83,94.19l35.29,28.95,2.46,2s2.05,1.5,2.7.71,0.24-1.25-1-2.95C156.59,214.75,141.47,194.4,140,183.67Z" transform="translate(-81.6 -63.27)"/><path class="cls-1" d="M94.65,107.61c0.85,0.79,1.65,1.63,2.43,2.48s1.52,1.74,2.22,2.66,1.35,1.86,2,2.81,1.24,1.92,1.8,2.92,1.1,2,1.6,3,1,2,1.44,3.09,0.87,2.09,1.26,3.15,0.77,2.12,1.1,3.2c0.13,0.38.24,0.76,0.35,1.13a86.57,86.57,0,0,1,3.51-12.91,99.28,99.28,0,0,1,7-15.27c1-1.87,2.13-3.65,3.24-5.39A15.95,15.95,0,0,1,143,74.15c0.84-.77,1.67-1.51,2.47-2.2a83.34,83.34,0,0,1,7.16-5.59c0.48-.33.93-0.63,1.36-0.91C143,62.21,115.46,56.58,92.33,100c-0.49,1.13-1.13,2.6-1.81,4.38A29.32,29.32,0,0,1,94.65,107.61Z" transform="translate(-81.6 -63.27)"/></svg>